<svg width="32" height="32" viewBox="0 0 32 32" fill="none" xmlns="http://www.w3.org/2000/svg">
  <!-- Dark background -->
  <rect width="32" height="32" fill="#0F0F23" rx="4"/>
  
  <!-- Central sphere -->
  <circle cx="16" cy="16" r="6" fill="#3B82F6" stroke="#1E40AF" stroke-width="0.5"/>
  <circle cx="16" cy="16" r="3" fill="#8B5CF6"/>
  
  <!-- Surrounding spheres -->
  <circle cx="8" cy="8" r="3" fill="#3B82F6" stroke="#1E40AF" stroke-width="0.5"/>
  <circle cx="8" cy="8" r="1.5" fill="#8B5CF6"/>
  
  <circle cx="24" cy="8" r="3" fill="#3B82F6" stroke="#1E40AF" stroke-width="0.5"/>
  <circle cx="24" cy="8" r="1.5" fill="#8B5CF6"/>
  
  <circle cx="8" cy="24" r="3" fill="#3B82F6" stroke="#1E40AF" stroke-width="0.5"/>
  <circle cx="8" cy="24" r="1.5" fill="#8B5CF6"/>
  
  <circle cx="24" cy="24" r="3" fill="#3B82F6" stroke="#1E40AF" stroke-width="0.5"/>
  <circle cx="24" cy="24" r="1.5" fill="#8B5CF6"/>
  
  <!-- Connecting lines -->
  <line x1="16" y1="16" x2="8" y2="8" stroke="#8B5CF6" stroke-width="1" opacity="0.7"/>
  <line x1="16" y1="16" x2="24" y2="8" stroke="#8B5CF6" stroke-width="1" opacity="0.7"/>
  <line x1="16" y1="16" x2="8" y2="24" stroke="#8B5CF6" stroke-width="1" opacity="0.7"/>
  <line x1="16" y1="16" x2="24" y2="24" stroke="#8B5CF6" stroke-width="1" opacity="0.7"/>
  
  <!-- Additional connection lines -->
  <line x1="8" y1="8" x2="24" y2="8" stroke="#8B5CF6" stroke-width="0.5" opacity="0.5"/>
  <line x1="8" y1="24" x2="24" y2="24" stroke="#8B5CF6" stroke-width="0.5" opacity="0.5"/>
  <line x1="8" y1="8" x2="8" y2="24" stroke="#8B5CF6" stroke-width="0.5" opacity="0.5"/>
  <line x1="24" y1="8" x2="24" y2="24" stroke="#8B5CF6" stroke-width="0.5" opacity="0.5"/>
</svg>
